<svg t="1623209609282" class="icon" viewBox="0 0 1024 1024" version="1.1" xmlns="http://www.w3.org/2000/svg" p-id="3439" width="128" height="128"><path d="M810.666667 704v170.666667a21.333333 21.333333 0 0 1-21.333334 21.333333H192a21.333333 21.333333 0 0 1-21.333333-21.333333V640h85.333333a64 64 0 0 0 0-128H170.666667V277.333333a21.333333 21.333333 0 0 1 21.333333-21.333333h170.666667v-21.333333a128 128 0 1 1 256 0v21.333333h170.666666a21.333333 21.333333 0 0 1 21.333334 21.333333v170.666667h21.333333a128 128 0 1 1 0 256h-21.333333z m-64 128v-192h85.333333a64 64 0 0 0 0-128h-85.333333v-192h-192v-85.333333a64 64 0 0 0-128 0v85.333333h-192v128h21.333333a128 128 0 1 1 0 256h-21.333333v128h512z" fill="#37352f" p-id="3440"></path></svg>