<?xml version="1.0" standalone="no"?><!DOCTYPE svg PUBLIC "-//W3C//DTD SVG 1.1//EN" "http://www.w3.org/Graphics/SVG/1.1/DTD/svg11.dtd"><svg t="1621912535838" class="icon" viewBox="0 0 1024 1024" version="1.1" xmlns="http://www.w3.org/2000/svg" p-id="4012" xmlns:xlink="http://www.w3.org/1999/xlink" width="128" height="128"><defs><style type="text/css"></style></defs><path d="M396.375 221.869l106.558 106.558c9.814 9.814 25.727 9.814 35.541 0 9.814-9.816 9.814-25.727 0-35.541l-106.558-106.56c-9.816-9.814-25.727-9.814-35.541 0-9.817 9.816-9.817 25.727 0 35.543M680.865 506.36l106.558 106.559c9.814 9.814 25.727 9.814 35.541 0 9.814-9.816 9.814-25.727 0-35.541L716.407 470.817c-9.816-9.814-25.727-9.814-35.541 0-9.817 9.816-9.817 25.727-0.001 35.543" fill="#5783f7" p-id="4013"></path><path d="M447.239 885.093c-0.023 0-0.048 0-0.07 0.003l-0.07 0.008 0.14-0.011zM211.465 797.946c-0.023-0.023-0.04-0.048-0.065-0.07-0.023-0.023-0.048-0.043-0.07-0.065l0.135 0.135zM135.678 499.165c0.008-0.023 0.02-0.048 0.028-0.073 0.013-0.04 0.02-0.083 0.033-0.123l-0.061 0.196zM439.191 734.762c-0.04 0.005-0.08 0-0.121 0.005-0.025 0.003-0.048 0.013-0.07 0.013l0.191-0.018z" fill="#5783f7" p-id="4014"></path><path d="M805.195 346.49l-124.33 124.327-184.969 184.969c-17.479 17.434-38.879 26.883-61.369 28.929l-0.194 0.018-9.821 0.477c-25.861-0.038-51.291-9.739-71.007-29.424-19.738-19.748-29.394-45.7-29.424-72.045-0.003-9.166 1.397-18.479 4.066-27.605 5.049-16.202 12.925-30.259 25.358-42.739l184.969-184.969 124.329-124.332-142.1-142.1-124.331 124.33-184.967 184.969c-36.68 36.662-62.002 80.678-75.699 127.797a301.248 301.248 0 0 0-12.616 86.305c-0.028 76.906 29.479 154.022 88.31 212.479 58.24 58.723 135.221 88.16 212.31 88.124 7.826 0 15.652-0.304 23.458-0.905 69.085-4.941 137.654-34.038 190.828-87.207l184.969-184.969 124.329-124.332L805.195 346.49z m-17.771 230.885L602.455 762.344c-44.32 44.322-101.381 68.502-158.935 72.623l-0.153 0.01c-6.554 0.505-13.109 0.759-19.656 0.761-64.475-0.035-128.174-24.413-176.689-73.317l-0.106-0.108-0.03-0.03c-49.06-48.748-73.503-112.671-73.533-176.887 0-24.28 3.516-48.567 10.535-72.005l0.028-0.093 0.03-0.103c11.44-39.306 32.347-75.687 63-106.357l184.969-184.972 88.788-88.788 71.015 71.017-88.785 88.788-184.969 184.97c-18.688 18.638-30.899 40.728-37.916 63.659l-0.035 0.121-0.053 0.176c-3.981 13.526-6.142 27.64-6.142 41.932-0.033 38.64 14.423 77.876 44.146 107.589 29.344 29.371 68.014 44.179 106.548 44.141 4.855 0 9.716-0.239 14.559-0.704 33.777-2.998 66.637-17.665 92.367-43.438l184.969-184.972 88.788-88.788 71.015 71.017-88.786 88.789z" fill="#5783f7" p-id="4015"></path></svg>