<svg t="1632794804240" class="icon" viewBox="0 0 1024 1024" version="1.1" xmlns="http://www.w3.org/2000/svg" p-id="2436" width="200" height="200"><path d="M627.498667 55.168l170.666666 170.666667a42.624 42.624 0 0 1 0 60.330666l-469.333333 469.333334A42.538667 42.538667 0 0 1 298.666667 768H128a42.666667 42.666667 0 0 1-42.666667-42.666667v-170.666666c0-11.306667 4.48-22.186667 12.501334-30.165334l469.333333-469.333333a42.624 42.624 0 0 1 60.330667 0zM896 896a42.666667 42.666667 0 0 1 0 85.333333H128a42.666667 42.666667 0 0 1 0-85.333333h768zM597.333333 145.664l-426.666666 426.666667V682.666667h110.336l426.666666-426.666667L597.333333 145.664z" p-id="2437" fill="#ffffff"></path></svg>