<svg t="1622725709414" class="icon" viewBox="0 0 1024 1024" version="1.1" xmlns="http://www.w3.org/2000/svg" p-id="18036" width="64" height="64"><path d="M414.293333 268.373333a42.666667 42.666667 0 0 0-60.586666 0l-213.333334 213.333334a42.666667 42.666667 0 0 0 0 60.586666l213.333334 213.333334a42.666667 42.666667 0 0 0 60.586666 0 42.666667 42.666667 0 0 0 0-60.586667L230.826667 512l183.466666-183.04a42.666667 42.666667 0 0 0 0-60.586667z m469.333334 213.333334l-213.333334-213.333334a42.837333 42.837333 0 1 0-60.586666 60.586667l183.466666 183.04-183.466666 183.04a42.666667 42.666667 0 0 0 0 60.586667 42.666667 42.666667 0 0 0 60.586666 0l213.333334-213.333334a42.666667 42.666667 0 0 0 0-60.586666z" fill="#808080" p-id="18037"></path></svg>