<svg t="1633941912847" class="icon" viewBox="0 0 1024 1024" version="1.1" xmlns="http://www.w3.org/2000/svg" p-id="3157" width="200" height="200"><path d="M827.4 266.8c-4.8-18-8-28-8-28-5.2-18.6-18.4-18.6-38-21.8l-106.2-13.4c-13.2-2.2-13.2-2.2-18.4-13.6-17.4-39.2-22.8-62-41.8-62l-206 0c-19 0-24.2 22.8-41.6 62.2-5.2 11.2-5.2 11.2-18.4 13.6l-106.4 13.4c-19.4 3.2-33.4 5-38.6 23.6 0 0-2.4 8.2-7.4 26-6.4 23.8-9 21.2 13 21.2l604.8 0C836.4 288.2 834 290.6 827.4 266.8z" p-id="3158" fill="#515151"></path><path d="M758.8 352 265.2 352c-33.2 0-34.8 4.4-32.8 29.4l37.4 485.2c3.2 24.6 5.6 29.6 35 29.6l414.4 0c29.4 0 31.8-5 35-29.6l37.4-485.2C793.6 356.2 792 352 758.8 352z" p-id="3159" fill="#515151"></path></svg>