<svg t="1622123275238" class="icon" viewBox="0 0 1024 1024" version="1.1" xmlns="http://www.w3.org/2000/svg" p-id="2542" width="64" height="64"><path d="M678.986667 384.373333L440 223.68a5.333333 5.333333 0 0 0-7.413333 1.44L107.573333 709.333333a5.333333 5.333333 0 0 0-0.8 4l39.146667 199.84a5.333333 5.333333 0 0 0 2.24 3.413334 5.333333 5.333333 0 0 0 4 0.8L352 878.08a5.333333 5.333333 0 0 0 3.413333-2.24l325.013334-484.053333a5.333333 5.333333 0 0 0-1.44-7.413334zM309.333333 810.346667l-103.626666 20.266666-20.32-103.626666 270.293333-402.666667 123.946667 83.36zM703.52 347.946667a5.333333 5.333333 0 0 0 7.36-1.44l47.626667-70.826667a5.333333 5.333333 0 0 0-1.44-7.36L518.08 107.573333a5.333333 5.333333 0 0 0-7.413333 1.44l-47.626667 70.826667a5.333333 5.333333 0 0 0 1.44 7.413333z" p-id="2543" fill="#000000"></path><path d="M528 774.88m5.333333 0l378.666667 0q5.333333 0 5.333333 5.333333l0 64q0 5.333333-5.333333 5.333334l-378.666667 0q-5.333333 0-5.333333-5.333334l0-64q0-5.333333 5.333333-5.333333Z" p-id="2544" fill="#000000"></path><path d="M622.506667 607.36m5.333333 0l284.16 0q5.333333 0 5.333333 5.333333l0 64q0 5.333333-5.333333 5.333334l-284.16 0q-5.333333 0-5.333333-5.333334l0-64q0-5.333333 5.333333-5.333333Z" p-id="2545" fill="#000000"></path><path d="M722.666667 439.786667m5.333333 0l184 0q5.333333 0 5.333333 5.333333l0 64q0 5.333333-5.333333 5.333333l-184 0q-5.333333 0-5.333333-5.333333l0-64q0-5.333333 5.333333-5.333333Z" p-id="2546" fill="#000000"></path></svg>